<svg xmlns="http://www.w3.org/2000/svg" width="1200" height="900" viewBox="0 0 1200 900">
	<style type="text/css">
		.st0{fill:#808080;}
		.st1{fill:#007BFF;}
	</style>
	<rect x="289.3" y="107.5" width="5" height="700"/>
	<rect x="289.3" y="455" width="702.5" height="5"/>
	<polygon points="283.2 107.5 291.8 92.5 300.5 107.5 "/>
	<polygon points="991.8 448.8 1006.8 457.5 991.8 466.2 "/>
	<rect x="689.3" y="680" class="st0" width="30" height="5"/>
	<rect x="639.3" y="680" class="st0" width="30" height="5"/>
	<rect x="589.3" y="680" class="st0" width="30" height="5"/>
	<rect x="539.3" y="680" class="st0" width="30" height="5"/>
	<rect x="489.3" y="680" class="st0" width="30" height="5"/>
	<rect x="439.3" y="680" class="st0" width="30" height="5"/>
	<rect x="389.3" y="680" class="st0" width="30" height="5"/>
	<rect x="339.3" y="680" class="st0" width="30" height="5"/>
	<rect x="289.3" y="680" class="st0" width="30" height="5"/>
	<rect x="291.8" y="455" class="st1" width="193.2" height="5"/>
	<path d="M203.4 132.6c1.1 0 2.2-0.4 3-1.1s1.3-1.6 1.3-2.6h3.1l0 0.1c0.1 1.6-0.7 3.1-2.2 4.4s-3.3 1.9-5.3 1.9c-2.8 0-4.9-0.9-6.3-2.7s-2.2-4.1-2.2-6.8v-0.7c0-2.7 0.7-5 2.2-6.8s3.6-2.7 6.3-2.7c2.2 0 4 0.7 5.5 2s2.1 2.9 2 4.8l0 0.1h-3.1c0-1.2-0.4-2.1-1.2-3s-1.9-1.2-3.1-1.2c-1.8 0-3.1 0.7-3.9 2s-1.2 2.9-1.2 4.8v0.7c0 1.9 0.4 3.6 1.2 4.9S201.6 132.6 203.4 132.6z"/>
	<path d="M214 125.2c0-2.8 0.8-5.1 2.3-7s3.6-2.7 6.2-2.7c2.6 0 4.7 0.9 6.2 2.7s2.3 4.1 2.3 7v0.4c0 2.8-0.8 5.2-2.3 7s-3.6 2.7-6.2 2.7 -4.7-0.9-6.2-2.7 -2.3-4.1-2.3-7V125.2zM217.4 125.6c0 2 0.4 3.7 1.3 5 0.8 1.3 2.1 2 3.8 2 1.7 0 2.9-0.7 3.8-2 0.9-1.3 1.3-3 1.3-5v-0.4c0-2-0.4-3.6-1.3-5s-2.1-2-3.8-2c-1.7 0-2.9 0.7-3.8 2s-1.3 3-1.3 5V125.6z"/>
	<path d="M246.3 129.9c0-0.8-0.3-1.4-0.9-1.9s-1.7-0.9-3.3-1.3c-2.3-0.5-4-1.2-5.2-2s-1.7-2-1.7-3.5c0-1.5 0.7-2.9 2-3.9s3-1.6 5.1-1.6c2.2 0 4 0.6 5.3 1.7s1.9 2.5 1.9 4.1l0 0.1h-3.3c0-0.8-0.3-1.6-1-2.2s-1.6-1-2.8-1c-1.2 0-2.1 0.3-2.7 0.8s-0.9 1.2-0.9 2c0 0.8 0.3 1.3 0.8 1.8s1.6 0.8 3.2 1.2c2.4 0.5 4.2 1.2 5.4 2.1s1.8 2.1 1.8 3.6c0 1.7-0.7 3.1-2 4.1s-3.1 1.6-5.4 1.6c-2.4 0-4.3-0.6-5.7-1.8s-2.1-2.7-2-4.3l0-0.1h3.3c0.1 1.2 0.5 2.1 1.4 2.7s1.9 0.8 3 0.8c1.2 0 2.2-0.2 2.9-0.7S246.3 130.7 246.3 129.9z"/>
	<path d="M265.9 115.9c2.7 0 5 0.9 6.9 2.8s2.9 4.2 2.9 7c0 2.6-0.8 4.7-2.4 6.5s-4 2.8-7.3 3v8.1h-3.5v-8.1c-3.2-0.3-5.6-1.4-7.1-3.3 -1.5-1.9-2.3-4.2-2.3-6.9 0-1.8 0.2-3.4 0.6-4.9s0.9-2.9 1.5-4.2h3.6c-0.7 1.6-1.2 3.1-1.6 4.6 -0.4 1.5-0.6 3-0.6 4.5 0 1.8 0.5 3.4 1.4 4.8 1 1.4 2.4 2.2 4.4 2.5l0.1 0v-16.3H265.9zM272.1 125.7c0-1.9-0.6-3.6-1.7-4.9 -1.1-1.4-2.6-2.1-4.4-2l-0.1 0v13.5l0.1 0c2.1-0.2 3.6-1 4.6-2.3S272.1 127.4 272.1 125.7z"/>
	<path d="M887.3 494.7v10.3h-3.5v-25.6h9.8c2.7 0 4.9 0.7 6.4 2.1s2.3 3.3 2.3 5.6c0 2.3-0.8 4.2-2.3 5.6s-3.6 2.1-6.4 2.1H887.3zM887.3 491.9h6.3c1.7 0 3-0.5 3.9-1.4 0.9-0.9 1.3-2.1 1.3-3.5 0-1.4-0.4-2.6-1.3-3.5 -0.9-0.9-2.2-1.4-3.9-1.4h-6.3V491.9z"/>
	<path d="M907 507.1h-3l10.7-27.8h2.9L907 507.1z"/>
	<path d="M925.3 494.7v10.3h-3.5v-25.6h9.8c2.7 0 4.9 0.7 6.4 2.1s2.3 3.3 2.3 5.6c0 2.3-0.8 4.2-2.3 5.6s-3.6 2.1-6.4 2.1H925.3zM925.3 491.9h6.3c1.7 0 3-0.5 3.9-1.4 0.9-0.9 1.3-2.1 1.3-3.5 0-1.4-0.4-2.6-1.3-3.5 -0.9-0.9-2.2-1.4-3.9-1.4h-6.3V491.9z"/>
	<path d="M954 497h-7.8v6.1h9v1.8h-11.3v-17.1H955v1.8h-8.9v5.5h7.8V497z"/>
	<path d="M959.5 492.2l0.2 1.7c0.4-0.6 0.9-1.1 1.6-1.4s1.4-0.5 2.2-0.5 1.6 0.2 2.2 0.6 1.1 1 1.4 1.8c0.4-0.7 0.9-1.3 1.6-1.7s1.4-0.6 2.3-0.6c1.3 0 2.3 0.4 3.1 1.3s1.1 2.2 1.1 4v7.6h-2.3v-7.6c0-1.3-0.2-2.1-0.6-2.7s-1.1-0.8-1.9-0.8c-0.8 0-1.4 0.3-1.9 0.8s-0.8 1.2-0.9 2.1v0.1 8.1h-2.3v-7.6c0-1.2-0.2-2.1-0.7-2.6s-1.1-0.8-1.9-0.8c-0.7 0-1.3 0.1-1.7 0.4s-0.8 0.7-1 1.2v9.4h-2.3v-12.7H959.5z"/>
	<path d="M986.2 504.9c-0.1-0.4-0.1-0.7-0.2-1s-0.1-0.6-0.1-0.9c-0.4 0.6-1 1.1-1.7 1.5s-1.4 0.6-2.2 0.6c-1.3 0-2.3-0.3-3-1s-1-1.6-1-2.8c0-1.2 0.5-2.2 1.5-2.8s2.3-1 4-1h2.5v-1.3c0-0.7-0.2-1.3-0.7-1.8s-1.1-0.7-1.9-0.7c-0.7 0-1.3 0.2-1.8 0.6s-0.7 0.8-0.7 1.4h-2.2l0-0.1c0-0.9 0.4-1.8 1.3-2.5s2.1-1.1 3.6-1.1c1.4 0 2.6 0.4 3.5 1.1s1.3 1.8 1.3 3.2v6.1c0 0.5 0 0.9 0.1 1.3s0.1 0.8 0.3 1.2H986.2zM982.4 503.2c0.8 0 1.6-0.2 2.3-0.6 0.7-0.4 1.1-0.9 1.3-1.5v-2.1h-2.6c-0.9 0-1.7 0.2-2.2 0.7 -0.6 0.5-0.8 1-0.8 1.6 0 0.6 0.2 1 0.5 1.3S981.7 503.2 982.4 503.2z"/>
	<path d="M995.9 496.9l2.7-4.7h2.7l-4.1 6.3 4.2 6.4h-2.6l-2.8-4.8 -2.8 4.8h-2.7l4.2-6.4 -4.1-6.3h2.7L995.9 496.9z"/>
	<path d="M228.6 232.4c0 3.3-0.7 5.8-2.2 7.5s-3.4 2.6-6 2.6 -4.5-0.9-6-2.6 -2.2-4.2-2.2-7.5v-6.1c0-3.3 0.7-5.8 2.2-7.5s3.4-2.6 6-2.6c2.5 0 4.5 0.9 6 2.6s2.2 4.3 2.2 7.5V232.4zM225.1 225.6c0-2.2-0.4-3.9-1.2-5 -0.8-1.1-2-1.7-3.5-1.7s-2.7 0.6-3.5 1.7c-0.8 1.1-1.2 2.8-1.2 5v7.5c0 2.2 0.4 3.9 1.2 5s2 1.7 3.5 1.7 2.7-0.6 3.5-1.7 1.2-2.8 1.2-5V225.6z"/>
	<path d="M236.9 242.2h-3.5v-3.6h3.5V242.2z"/>
	<path d="M249.2 239.8c1.7 0 3-0.6 4.1-1.9s1.5-3.2 1.5-5.7v-1.2c-0.6 0.8-1.3 1.5-2.2 1.9s-1.8 0.6-2.9 0.6c-2.5 0-4.4-0.8-5.9-2.3s-2.2-3.6-2.2-6.3c0-2.6 0.8-4.7 2.3-6.3s3.4-2.5 5.6-2.5c2.7 0 4.8 0.8 6.3 2.5 1.5 1.7 2.3 4.1 2.3 7.4v6.1c0 3.3-0.8 5.9-2.5 7.7 -1.7 1.8-3.8 2.7-6.5 2.7 -0.9 0-1.8-0.1-2.8-0.3 -0.9-0.2-1.8-0.4-2.5-0.8l0.5-2.7c0.7 0.4 1.4 0.6 2.2 0.8S248.3 239.8 249.2 239.8zM249.8 230.9c1.3 0 2.3-0.3 3.2-0.8s1.5-1.3 1.8-2.1v-2.2c0-2.2-0.4-3.9-1.3-5.1s-2.1-1.7-3.8-1.7c-1.3 0-2.3 0.6-3.2 1.7s-1.3 2.6-1.3 4.3c0 1.8 0.4 3.2 1.2 4.3S248.4 230.9 249.8 230.9z"/>
	<path d="M318.7 401.1v3.2h-2.9v-3.2H318.7zM318.7 407.9v3.2h-2.9v-3.2H318.7zM320.9 398.1h14.5c2.3 0 4.1 0.8 5.3 2.3 1.2 1.5 1.8 3.5 1.8 5.9 0 2.3-0.6 4.2-1.9 5.7 -1.2 1.5-3 2.2-5.3 2.2h-14.5v-2.9h14.4c1.6 0 2.8-0.5 3.7-1.4s1.3-2.1 1.3-3.6c0-1.6-0.4-2.9-1.3-3.8s-2.1-1.5-3.7-1.5h-14.4V398.1z"/>
	<path d="M334.9 380.4c2.3 0 4.1 0.5 5.5 1.6 1.4 1.1 2.1 2.6 2.1 4.5 0 1-0.2 2-0.6 2.7s-1 1.4-1.8 1.9l2.1 0.4v2.4h-22.9V391h8.9c-0.7-0.5-1.2-1.1-1.6-1.9 -0.4-0.7-0.6-1.6-0.6-2.6 0-2 0.8-3.5 2.3-4.6s3.6-1.6 6.2-1.6H334.9zM334.6 383.3c-1.8 0-3.3 0.3-4.4 1s-1.7 1.7-1.7 3.1c0 0.9 0.2 1.6 0.7 2.2s1 1.1 1.8 1.5h6.9c0.8-0.4 1.4-0.9 1.8-1.5 0.4-0.6 0.7-1.4 0.7-2.3 0-1.4-0.5-2.4-1.5-3s-2.2-1-3.8-1H334.6z"/>
	<path d="M342.5 370.3c0 2.2-0.7 4-2.2 5.3 -1.5 1.3-3.4 2-5.7 2h-0.6c-2.3 0-4.1-0.7-5.6-2 -1.5-1.3-2.2-2.9-2.2-4.8 0-2.1 0.6-3.8 1.9-4.8s3-1.6 5.2-1.6h1.8v10.3l0.1 0c1.5 0 2.8-0.4 3.7-1.2 1-0.7 1.5-1.8 1.5-3.1 0-1-0.1-1.8-0.4-2.6s-0.7-1.4-1.1-1.9l1.9-1.1c0.6 0.6 1 1.3 1.4 2.2C342.3 367.9 342.5 369 342.5 370.3zM328.3 370.7c0 1 0.4 1.8 1.2 2.5 0.8 0.7 1.8 1.1 3.1 1.3l0.1 0v-7.3h-0.4c-1.1 0-2.1 0.3-2.8 0.9C328.7 368.6 328.3 369.5 328.3 370.7z"/>
	<path d="M328.9 353.5l-0.1 1.5c0 0.8 0.2 1.4 0.5 1.9 0.4 0.5 0.9 0.9 1.5 1.2h11.3v2.9h-15.8v-2.6l2.3-0.3c-0.8-0.4-1.5-1-1.9-1.7 -0.5-0.7-0.7-1.4-0.7-2.3 0-0.2 0-0.4 0.1-0.6s0.1-0.4 0.1-0.5L328.9 353.5z"/>
	<path d="M342.5 344.4c0 2.2-0.7 4-2.2 5.3 -1.5 1.3-3.4 2-5.7 2h-0.6c-2.3 0-4.1-0.7-5.6-2 -1.5-1.3-2.2-2.9-2.2-4.8 0-2.1 0.6-3.8 1.9-4.8s3-1.6 5.2-1.6h1.8v10.3l0.1 0c1.5 0 2.8-0.4 3.7-1.2 1-0.7 1.5-1.8 1.5-3.1 0-1-0.1-1.8-0.4-2.6s-0.7-1.4-1.1-1.9l1.9-1.1c0.6 0.6 1 1.3 1.4 2.2C342.3 342 342.5 343.1 342.5 344.4zM328.3 344.9c0 1 0.4 1.8 1.2 2.5 0.8 0.7 1.8 1.1 3.1 1.3l0.1 0v-7.3h-0.4c-1.1 0-2.1 0.3-2.8 0.9C328.7 342.8 328.3 343.7 328.3 344.9z"/>
	<path d="M328.9 327.6l-0.1 1.5c0 0.8 0.2 1.4 0.5 1.9 0.4 0.5 0.9 0.9 1.5 1.2h11.3v2.9h-15.8v-2.6l2.3-0.3c-0.8-0.4-1.5-1-1.9-1.7 -0.5-0.7-0.7-1.4-0.7-2.3 0-0.2 0-0.4 0.1-0.6s0.1-0.4 0.1-0.5L328.9 327.6z"/>
	<path d="M328.9 317.4l-0.1 1.5c0 0.8 0.2 1.4 0.5 1.9 0.4 0.5 0.9 0.9 1.5 1.2h11.3v2.9h-15.8v-2.6l2.3-0.3c-0.8-0.4-1.5-1-1.9-1.7 -0.5-0.7-0.7-1.4-0.7-2.3 0-0.2 0-0.4 0.1-0.6s0.1-0.4 0.1-0.5L328.9 317.4z"/>
	<path d="M342.5 308.3c0 2.2-0.7 4-2.2 5.3 -1.5 1.3-3.4 2-5.7 2h-0.6c-2.3 0-4.1-0.7-5.6-2 -1.5-1.3-2.2-2.9-2.2-4.8 0-2.1 0.6-3.8 1.9-4.8s3-1.6 5.2-1.6h1.8v10.3l0.1 0c1.5 0 2.8-0.4 3.7-1.2 1-0.7 1.5-1.8 1.5-3.1 0-1-0.1-1.8-0.4-2.6s-0.7-1.4-1.1-1.9l1.9-1.1c0.6 0.6 1 1.3 1.4 2.2C342.3 305.8 342.5 307 342.5 308.3zM328.3 308.7c0 1 0.4 1.8 1.2 2.5 0.8 0.7 1.8 1.1 3.1 1.3l0.1 0v-7.3h-0.4c-1.1 0-2.1 0.3-2.8 0.9C328.7 306.6 328.3 307.5 328.3 308.7z"/>
	<path d="M334.6 299.6c-2.5 0-4.6-0.6-6.2-1.7s-2.3-2.7-2.3-4.6c0-1 0.2-1.9 0.6-2.7s1-1.4 1.8-1.9l-2.1-0.4v-2.3h15.9c2 0 3.6 0.6 4.7 1.8s1.6 2.9 1.6 5.1c0 0.8-0.1 1.6-0.3 2.5 -0.2 0.9-0.5 1.7-0.9 2.3l-2.2-0.7c0.3-0.5 0.5-1.1 0.7-1.9s0.3-1.5 0.3-2.2c0-1.4-0.3-2.4-1-3.1 -0.6-0.6-1.6-1-2.9-1h-1.8c0.7 0.5 1.2 1.1 1.5 1.9s0.5 1.6 0.5 2.5c0 1.9-0.7 3.5-2.1 4.6s-3.2 1.7-5.5 1.7H334.6zM334.9 296.7c1.6 0 2.9-0.3 3.8-1s1.5-1.7 1.5-3.1c0-0.9-0.2-1.6-0.6-2.2s-1-1.1-1.7-1.5h-7.3c-0.7 0.4-1.2 0.9-1.6 1.5s-0.6 1.3-0.6 2.2c0 1.4 0.6 2.4 1.7 3.1s2.6 1 4.4 1H334.9z"/>
	<path d="M322.5 278.1h3.8v-3h2.1v3h9.6c0.7 0 1.3-0.2 1.6-0.5 0.3-0.3 0.5-0.7 0.5-1.2 0-0.2 0-0.3-0.1-0.5s-0.1-0.4-0.1-0.5l2-0.4c0.2 0.2 0.3 0.5 0.4 0.9s0.2 0.8 0.2 1.3c0 1.2-0.4 2.1-1.1 2.8s-1.8 1-3.3 1h-9.6v2.5h-2.1V281h-3.8V278.1z"/>
	<path d="M320.9 628.3h14.5c2.3 0 4.1 0.8 5.3 2.3 1.2 1.5 1.8 3.5 1.8 5.9 0 2.3-0.6 4.2-1.9 5.7 -1.2 1.5-3 2.2-5.3 2.2h-14.5v-2.9h14.4c1.6 0 2.8-0.5 3.7-1.4s1.3-2.1 1.3-3.6c0-1.6-0.4-2.9-1.3-3.8s-2.1-1.5-3.7-1.5h-14.4V628.3z"/>
	<path d="M326.3 621.5l2.4-0.2c-0.8-0.5-1.5-1.2-2-2 -0.5-0.8-0.7-1.7-0.7-2.7 0-1.7 0.5-3 1.5-4s2.5-1.4 4.6-1.4h10v2.9h-9.9c-1.4 0-2.4 0.3-3 0.8s-0.9 1.4-0.9 2.5c0 0.8 0.2 1.6 0.6 2.2 0.4 0.6 0.9 1.2 1.6 1.5h11.6v2.9h-15.8V621.5z"/>
	<path d="M322.5 603.3h3.8v-3h2.1v3h9.6c0.7 0 1.3-0.2 1.6-0.5 0.3-0.3 0.5-0.7 0.5-1.2 0-0.2 0-0.3-0.1-0.5s-0.1-0.4-0.1-0.5l2-0.4c0.2 0.2 0.3 0.5 0.4 0.9s0.2 0.8 0.2 1.3c0 1.2-0.4 2.1-1.1 2.8s-1.8 1-3.3 1h-9.6v2.5h-2.1v-2.5h-3.8V603.3z"/>
	<path d="M342.5 590.1c0 2.2-0.7 4-2.2 5.3 -1.5 1.3-3.4 2-5.7 2h-0.6c-2.3 0-4.1-0.7-5.6-2 -1.5-1.3-2.2-2.9-2.2-4.8 0-2.1 0.6-3.8 1.9-4.8s3-1.6 5.2-1.6h1.8v10.3l0.1 0c1.5 0 2.8-0.4 3.7-1.2 1-0.7 1.5-1.8 1.5-3.1 0-1-0.1-1.8-0.4-2.6s-0.7-1.4-1.1-1.9l1.9-1.1c0.6 0.6 1 1.3 1.4 2.2C342.3 587.7 342.5 588.8 342.5 590.1zM328.3 590.6c0 1 0.4 1.8 1.2 2.5 0.8 0.7 1.8 1.1 3.1 1.3l0.1 0V587h-0.4c-1.1 0-2.1 0.3-2.8 0.9C328.7 588.5 328.3 589.4 328.3 590.6z"/>
	<path d="M328.9 573.3l-0.1 1.5c0 0.8 0.2 1.4 0.5 1.9 0.4 0.5 0.9 0.9 1.5 1.2h11.3v2.9h-15.8v-2.6l2.3-0.3c-0.8-0.4-1.5-1-1.9-1.7 -0.5-0.7-0.7-1.4-0.7-2.3 0-0.2 0-0.4 0.1-0.6s0.1-0.4 0.1-0.5L328.9 573.3z"/>
	<path d="M342.5 564.3c0 2.2-0.7 4-2.2 5.3 -1.5 1.3-3.4 2-5.7 2h-0.6c-2.3 0-4.1-0.7-5.6-2 -1.5-1.3-2.2-2.9-2.2-4.8 0-2.1 0.6-3.8 1.9-4.8s3-1.6 5.2-1.6h1.8v10.3l0.1 0c1.5 0 2.8-0.4 3.7-1.2 1-0.7 1.5-1.8 1.5-3.1 0-1-0.1-1.8-0.4-2.6s-0.7-1.4-1.1-1.9l1.9-1.1c0.6 0.6 1 1.3 1.4 2.2C342.3 561.8 342.5 562.9 342.5 564.3zM328.3 564.7c0 1 0.4 1.8 1.2 2.5 0.8 0.7 1.8 1.1 3.1 1.3l0.1 0v-7.3h-0.4c-1.1 0-2.1 0.3-2.8 0.9C328.7 562.6 328.3 563.5 328.3 564.7z"/>
	<path d="M328.9 547.5l-0.1 1.5c0 0.8 0.2 1.4 0.5 1.9 0.4 0.5 0.9 0.9 1.5 1.2h11.3v2.9h-15.8v-2.6l2.3-0.3c-0.8-0.4-1.5-1-1.9-1.7 -0.5-0.7-0.7-1.4-0.7-2.3 0-0.2 0-0.4 0.1-0.6s0.1-0.4 0.1-0.5L328.9 547.5z"/>
	<path d="M328.9 537.2l-0.1 1.5c0 0.8 0.2 1.4 0.5 1.9 0.4 0.5 0.9 0.9 1.5 1.2h11.3v2.9h-15.8v-2.6l2.3-0.3c-0.8-0.4-1.5-1-1.9-1.7 -0.5-0.7-0.7-1.4-0.7-2.3 0-0.2 0-0.4 0.1-0.6s0.1-0.4 0.1-0.5L328.9 537.2z"/>
	<path d="M342.5 528.1c0 2.2-0.7 4-2.2 5.3 -1.5 1.3-3.4 2-5.7 2h-0.6c-2.3 0-4.1-0.7-5.6-2 -1.5-1.3-2.2-2.9-2.2-4.8 0-2.1 0.6-3.8 1.9-4.8s3-1.6 5.2-1.6h1.8v10.3l0.1 0c1.5 0 2.8-0.4 3.7-1.2 1-0.7 1.5-1.8 1.5-3.1 0-1-0.1-1.8-0.4-2.6s-0.7-1.4-1.1-1.9l1.9-1.1c0.6 0.6 1 1.3 1.4 2.2C342.3 525.7 342.5 526.8 342.5 528.1zM328.3 528.5c0 1 0.4 1.8 1.2 2.5 0.8 0.7 1.8 1.1 3.1 1.3l0.1 0v-7.3h-0.4c-1.1 0-2.1 0.3-2.8 0.9C328.7 526.4 328.3 527.3 328.3 528.5z"/>
	<path d="M334.6 519.4c-2.5 0-4.6-0.6-6.2-1.7s-2.3-2.7-2.3-4.6c0-1 0.2-1.9 0.6-2.7s1-1.4 1.8-1.9l-2.1-0.4v-2.3h15.9c2 0 3.6 0.6 4.7 1.8s1.6 2.9 1.6 5.1c0 0.8-0.1 1.6-0.3 2.5 -0.2 0.9-0.5 1.7-0.9 2.3l-2.2-0.7c0.3-0.5 0.5-1.1 0.7-1.9s0.3-1.5 0.3-2.2c0-1.4-0.3-2.4-1-3.1 -0.6-0.6-1.6-1-2.9-1h-1.8c0.7 0.5 1.2 1.1 1.5 1.9s0.5 1.6 0.5 2.5c0 1.9-0.7 3.5-2.1 4.6s-3.2 1.7-5.5 1.7H334.6zM334.9 516.6c1.6 0 2.9-0.3 3.8-1s1.5-1.7 1.5-3.1c0-0.9-0.2-1.6-0.6-2.2s-1-1.1-1.7-1.5h-7.3c-0.7 0.4-1.2 0.9-1.6 1.5s-0.6 1.3-0.6 2.2c0 1.4 0.6 2.4 1.7 3.1s2.6 1 4.4 1H334.9z"/>
	<path d="M322.5 498h3.8v-3h2.1v3h9.6c0.7 0 1.3-0.2 1.6-0.5 0.3-0.3 0.5-0.7 0.5-1.2 0-0.2 0-0.3-0.1-0.5s-0.1-0.4-0.1-0.5l2-0.4c0.2 0.2 0.3 0.5 0.4 0.9s0.2 0.8 0.2 1.3c0 1.2-0.4 2.1-1.1 2.8s-1.8 1-3.3 1h-9.6v2.5h-2.1v-2.5h-3.8V498z"/>
	<rect x="714.3" y="430" class="st0" width="5" height="30"/>
	<rect x="714.3" y="380" class="st0" width="5" height="30"/>
	<rect x="714.3" y="330" class="st0" width="5" height="30"/>
	<rect x="714.3" y="280" class="st0" width="5" height="30"/>
	<rect x="689.3" y="230" class="st0" width="30" height="5"/>
	<rect x="639.3" y="230" class="st0" width="30" height="5"/>
	<rect x="589.3" y="230" class="st0" width="30" height="5"/>
	<rect x="539.3" y="230" class="st0" width="30" height="5"/>
	<rect x="489.3" y="230" class="st0" width="30" height="5"/>
	<rect x="439.3" y="230" class="st0" width="30" height="5"/>
	<rect x="389.3" y="230" class="st0" width="30" height="5"/>
	<rect x="339.3" y="230" class="st0" width="30" height="5"/>
	<rect x="289.3" y="230" class="st0" width="30" height="5"/>
	<rect x="291.8" y="455" class="st1" width="216.9" height="5"/>
	<rect x="714.3" y="455" class="st0" width="5" height="30"/>
	<rect x="714.3" y="505" class="st0" width="5" height="30"/>
	<rect x="714.3" y="555" class="st0" width="5" height="30"/>
	<rect x="714.3" y="605" class="st0" width="5" height="30"/>
	<rect x="714.3" y="655" class="st0" width="5" height="30"/>
	<rect x="714.3" y="230" class="st0" width="5" height="30"/>
	<rect x="457.9" y="567.7" transform="matrix(-0.682 -0.7314 0.7314 -0.682 612.4574 1406.7548)" class="st1" width="308.4" height="5"/>
	<path d="M501.9 420.3c0 3.3-0.7 5.8-2.2 7.5s-3.4 2.6-6 2.6 -4.5-0.9-6-2.6 -2.2-4.2-2.2-7.5v-6.1c0-3.3 0.7-5.8 2.2-7.5s3.4-2.6 6-2.6c2.5 0 4.5 0.9 6 2.6s2.2 4.3 2.2 7.5V420.3zM498.4 413.5c0-2.2-0.4-3.9-1.2-5 -0.8-1.1-2-1.7-3.5-1.7s-2.7 0.6-3.5 1.7c-0.8 1.1-1.2 2.8-1.2 5v7.5c0 2.2 0.4 3.9 1.2 5s2 1.7 3.5 1.7 2.7-0.6 3.5-1.7 1.2-2.8 1.2-5V413.5z"/>
	<path d="M510.2 430h-3.5v-3.6h3.5V430z"/>
	<path d="M516.6 418.5l1.5-14h12.8v3.1H521l-0.8 7.2c0.5-0.4 1.1-0.7 1.8-1s1.4-0.4 2.3-0.4c2.4 0 4.2 0.7 5.6 2.3s2 3.7 2 6.3c0 2.6-0.7 4.6-2.1 6.2s-3.4 2.3-6 2.3c-2.2 0-4-0.6-5.4-1.8s-2.1-2.9-2.1-5.2l0-0.1h3.1c0 1.4 0.4 2.5 1.2 3.2s1.8 1.1 3.1 1.1c1.5 0 2.6-0.5 3.4-1.5 0.8-1 1.2-2.4 1.2-4.2 0-1.6-0.4-3-1.2-4 -0.8-1.1-2-1.6-3.4-1.6 -1.4 0-2.3 0.2-3 0.6s-1.1 1-1.3 1.9L516.6 418.5z"/>
	<path d="M744 430h-3.5v-22.2l-5.2 0.1v-2.5l8.7-0.9V430z"/>
	<rect x="714.3" y="442.5" width="5" height="30"/>
	<rect x="506.2" y="442.5" width="5" height="30"/>
	<rect x="714.3" y="442.5" width="5" height="30"/>
	<rect x="276.8" y="230" width="30" height="5"/>
	<rect x="276.8" y="680" width="30" height="5"/>
	<path d="M228.6 682.4c0 3.3-0.7 5.8-2.2 7.5s-3.4 2.6-6 2.6 -4.5-0.9-6-2.6 -2.2-4.2-2.2-7.5v-6.1c0-3.3 0.7-5.8 2.2-7.5s3.4-2.6 6-2.6c2.5 0 4.5 0.9 6 2.6s2.2 4.3 2.2 7.5V682.4zM225.1 675.6c0-2.2-0.4-3.9-1.2-5 -0.8-1.1-2-1.7-3.5-1.7s-2.7 0.6-3.5 1.7c-0.8 1.1-1.2 2.8-1.2 5v7.5c0 2.2 0.4 3.9 1.2 5 0.8 1.1 2 1.7 3.5 1.7s2.7-0.6 3.5-1.7c0.8-1.1 1.2-2.8 1.2-5V675.6z"/>
	<path d="M236.9 692.2h-3.5v-3.6h3.5V692.2z"/>
	<path d="M249.2 689.8c1.7 0 3-0.6 4.1-1.9 1-1.3 1.5-3.2 1.5-5.7v-1.2c-0.6 0.8-1.3 1.5-2.2 1.9s-1.8 0.6-2.9 0.6c-2.5 0-4.4-0.8-5.9-2.3s-2.2-3.6-2.2-6.3c0-2.6 0.8-4.7 2.3-6.3s3.4-2.5 5.6-2.5c2.7 0 4.8 0.8 6.3 2.5 1.5 1.7 2.3 4.1 2.3 7.4v6.1c0 3.3-0.8 5.9-2.5 7.7 -1.7 1.8-3.8 2.7-6.5 2.7 -0.9 0-1.8-0.1-2.8-0.3 -0.9-0.2-1.8-0.4-2.5-0.8l0.5-2.7c0.7 0.4 1.4 0.6 2.2 0.8S248.3 689.8 249.2 689.8zM249.8 680.9c1.3 0 2.3-0.3 3.2-0.8 0.8-0.6 1.5-1.3 1.8-2.1v-2.2c0-2.2-0.4-3.9-1.3-5.1 -0.9-1.1-2.1-1.7-3.8-1.7 -1.3 0-2.3 0.6-3.2 1.7 -0.9 1.1-1.3 2.6-1.3 4.3 0 1.8 0.4 3.2 1.2 4.3C247.2 680.3 248.4 680.9 249.8 680.9z"/>
	<rect x="276.8" y="455" width="30" height="5"/>
	<path d="M252.6 467.2h-3.5V445l-5.2 0.1v-2.5l8.7-0.9V467.2z"/>
</svg>