<?xml version="1.0" encoding="utf-8"?>
<!-- Generator: Adobe Illustrator 19.1.0, SVG Export Plug-In . SVG Version: 6.00 Build 0)  -->
<svg version="1.1" xmlns="http://www.w3.org/2000/svg" xmlns:xlink="http://www.w3.org/1999/xlink" x="0px" y="0px" width="950px"
	 height="350px" viewBox="553 309 950 350" style="enable-background:new 553 309 950 350;" xml:space="preserve">
<style type="text/css">
	.st0{fill:#92E503;}
</style>
<g id="Layer_1">
	<path id="Layer" d="M643.3,484.9c-6.3,0-12.4-1.7-17.7-5c-5.3-3.1-9.7-7.5-13-12.7v16.2h-4.9V372.2h5.2v50
		c3.6-5.5,8.3-10.2,13.6-13.9c5.3-3.6,11.6-5.4,18.1-5.3c5.4-0.1,10.7,1.2,15.4,3.7c4.4,2.3,8.3,5.6,11.4,9.5
		c3.1,4,5.6,8.4,7.2,13.2c1.7,4.8,2.5,9.8,2.5,14.9c0,5.3-1,10.5-2.9,15.4c-1.9,4.8-4.6,9.2-8.1,13c-3.4,3.7-7.5,6.8-12.1,9
		C653.4,483.8,648.4,485,643.3,484.9z M642.5,480.1c4.7,0,9.3-1.1,13.5-3.2c4-2,7.6-4.8,10.6-8.2s5.3-7.3,6.9-11.5
		c1.7-4.2,2.5-8.7,2.5-13.2c0-4.6-0.8-9.2-2.4-13.6c-1.5-4.2-3.7-8.1-6.6-11.6c-2.8-3.4-6.2-6.1-10.1-8.1c-4.1-2.1-8.6-3.1-13.1-3.1
		c-3.4,0-6.8,0.6-10.1,1.8c-3.1,1.2-6,2.8-8.6,4.9c-2.6,2.1-5,4.4-7,7c-2.1,2.6-3.8,5.4-5.3,8.4v27.6c0.3,3.2,1.5,6.2,3.4,8.7
		c2,2.8,4.5,5.2,7.3,7.2c2.9,2.1,6,3.7,9.4,4.9C636,479.4,639.3,480,642.5,480.1L642.5,480.1z"/>
	<path id="Layer_1_" d="M719.5,484.9c-3.5,0-7-0.6-10.2-1.9c-3-1.2-5.8-3-8.2-5.2c-2.3-2.2-4.2-4.8-5.5-7.7c-1.3-3-2-6.3-2-9.6
		c0-3.2,0.8-6.4,2.4-9.2c1.7-2.9,4-5.3,6.8-7.2c3.2-2.2,6.7-3.8,10.4-4.7c4.3-1.2,8.8-1.7,13.2-1.7c4.5,0,9,0.4,13.5,1.1
		c4.2,0.6,8.3,1.7,12.3,3.2v-8.5c0-7.9-2.3-14.3-6.8-19s-10.6-7.1-18.2-7.1c-4.2,0.1-8.4,0.9-12.4,2.5c-4.7,1.8-9.1,4.3-13.1,7.2
		l-2.4-3.8c10.2-6.9,19.6-10.4,28.2-10.4c9.2,0,16.5,2.7,21.9,8.2c5.3,5.5,8,13,8,22.6v41.5c0,2.2,0.9,3.3,2.7,3.3v4.9
		c-0.3,0.1-0.6,0.1-0.8,0.2h-0.7c-1.7,0-3.2-0.7-4.3-1.9c-1.2-1.3-1.8-2.9-1.8-4.6v-7c-3.7,4.8-8.6,8.6-14.2,11
		C732.4,483.6,726,485,719.5,484.9L719.5,484.9z M731.5,479c3.6-0.9,7.1-2.3,10.3-4.2c2.8-1.6,5.4-3.7,7.5-6.2
		c1.8-2.1,2.9-4.7,2.9-7.5v-15c-8.1-3.1-16.7-4.6-25.3-4.6c-3.9,0-7.7,0.4-11.4,1.4c-3.2,0.8-6.2,2.1-8.9,3.8
		c-2.3,1.5-4.3,3.5-5.8,5.8c-1.4,2.3-2.1,5-2.1,7.7c0,2.7,0.5,5.4,1.7,7.9c1.1,2.4,2.6,4.6,4.6,6.4c2,1.9,4.3,3.3,6.8,4.3
		c2.5,1.2,5.4,1.7,8.3,1.7C723.9,480.5,727.8,480,731.5,479L731.5,479z"/>
	<path id="Layer_2_" d="M811.3,475.4c-0.4,0.3-0.8,0.6-1.2,0.8c-0.8,0.5-1.8,0.9-2.7,1.3c-1.3,0.5-2.6,0.9-3.9,1.2
		c-1.5,0.3-3,0.5-4.6,0.5c-2.5,0-5-0.8-7-2.3c-2.1-1.6-3.3-4.1-3.3-6.7v-61.5h18.7v-4.6h-18.7v-27.3h-5.2v27.4h-11.3v4.5h11.3V471
		c-0.2,3.8,1.4,7.4,4.3,9.7c2.9,2.3,6.6,3.5,10.3,3.4c2,0,4-0.2,5.9-0.6c1.6-0.3,3.2-0.8,4.7-1.4c1.1-0.4,2.2-0.9,3.3-1.5l1.5-0.8
		L811.3,475.4z"/>
	<path id="Layer_3_" d="M858.2,475.4c-0.4,0.3-0.8,0.6-1.2,0.8c-0.8,0.5-1.8,0.9-2.7,1.3c-1.3,0.5-2.6,0.9-3.9,1.2
		c-1.5,0.3-3,0.5-4.6,0.5c-2.5,0-5-0.8-7-2.3c-2.1-1.6-3.3-4.1-3.3-6.7v-61.5h18.7v-4.6h-18.7v-27.3h-5.2v27.4H819v4.5h11.2V471
		c-0.2,3.8,1.4,7.4,4.3,9.7c2.9,2.3,6.6,3.5,10.3,3.4c2,0,4-0.2,5.9-0.6c1.6-0.3,3.2-0.8,4.7-1.4c1.1-0.4,2.2-0.9,3.3-1.5l1.5-0.8
		L858.2,475.4z"/>
	<path id="Layer_4_" d="M905.1,484.9c-5.2,0-10.4-1.1-15.1-3.3c-4.6-2.2-8.8-5.2-12.3-9c-3.5-3.9-6.3-8.3-8.2-13.2
		c-2-5.1-3-10.6-3-16.1c0-5.4,0.9-10.7,2.9-15.7c1.8-4.8,4.6-9.1,8.1-12.8c3.4-3.6,7.5-6.6,12-8.7c4.7-2.2,9.8-3.3,14.9-3.2
		c5.2,0,10.4,1,15.2,3.2c4.6,2.1,8.8,5.1,12.2,8.8c3.5,3.8,6.3,8.2,8.2,13c2,5,3,10.4,3,15.9v1.1c0.1,0.4,0,0.8-0.2,1.1h-71.1
		c0.4,4.7,1.5,9.3,3.4,13.6c1.8,4,4.2,7.7,7.3,10.9c3,3,6.5,5.5,10.4,7.2c3.9,1.8,8.2,2.7,12.5,2.7c2.9,0,5.7-0.4,8.5-1.1
		c2.8-0.8,5.4-1.9,7.9-3.3c2.4-1.4,4.5-3.1,6.4-5.1c1.8-1.9,3.3-4.1,4.4-6.5l4.7,1.2c-1.2,2.8-2.8,5.4-4.9,7.7
		c-2.2,2.4-4.7,4.5-7.5,6.1c-3,1.7-6.1,3-9.4,4C912,484.5,908.5,485,905.1,484.9L905.1,484.9z M937.8,441.6
		c-0.2-4.7-1.3-9.4-3.2-13.7c-1.7-4-4.2-7.7-7.2-10.8c-2.9-3-6.4-5.4-10.3-7.1c-4-1.7-8.2-2.5-12.5-2.5s-8.5,0.9-12.5,2.6
		c-3.8,1.7-7.3,4.1-10.1,7.2c-3,3.2-5.3,6.8-7,10.8c-1.8,4.3-2.9,8.9-3.2,13.6h66V441.6z"/>
	<path id="Layer_5_" d="M995.8,404.1h-2.1c-0.8,0-1.8,0.1-2.8,0.2c-5.3,0.7-10.4,2.9-14.6,6.3c-4.7,3.6-8.4,8.3-11,13.7v-20.1h-5
		v79.2h5.2v-49.9c1.8-6.9,5.8-13.1,11.3-17.6c5.5-4.3,12.2-6.7,19.1-6.9L995.8,404.1z"/>
	<path id="Layer_6_" class="st0" d="M1001.3,508.4c3.5-3.3,8.5-8.1,14.2-14.1c2.9-3,5.9-6.3,9.1-9.8c3.2-3.6,6.5-7.3,9.8-11.4
		c3.3-4.1,6.6-8.3,9.7-12.9c1.6-2.3,3.1-4.7,4.5-7.2c0.3-0.7,0.7-1.3,1-2c0.3-0.7,0.6-1.3,0.9-2.1l0.4-1.1c0.2-0.4,0.3-0.9,0.4-1.3
		c0.1-0.5,0.2-0.9,0.3-1.4l0.1-0.8v-0.4v-0.2v-0.1c0-0.2,0,0.3,0-0.5c-0.1-0.8-0.2-1.6-0.4-2.4c-0.1-0.5-0.2-1.1-0.4-1.5l-0.4-1.1
		c-0.2-0.8-0.6-1.4-0.9-2.1c-0.3-0.7-0.6-1.4-1-2c-1.4-2.5-2.9-4.9-4.5-7.2c-3.1-4.6-6.4-8.9-9.7-12.9c-3.3-4.1-6.6-7.8-9.8-11.4
		c-3.2-3.5-6.3-6.7-9.1-9.8s-5.5-5.7-7.9-8.1c-2.4-2.3-4.5-4.3-6.3-6c-3.5-3.3-5.6-5.1-5.6-5.1s1.6,2.3,4.5,6.1c2.9,3.9,7,9.4,12,16
		l8,10.6c2.9,3.8,5.8,7.7,8.8,11.9s6,8.5,8.9,12.9c1.4,2.2,2.8,4.5,4,6.7c0.3,0.6,0.6,1.1,0.8,1.7c0.2,0.5,0.5,1,0.7,1.6l0.3,0.8
		c0.1,0.2,0.1,0.3,0.2,0.5c0.2,0.6,0.3,1.1,0.3,1.7c0-0.8,0-0.2,0-0.4v0.1v0.1v0.2c0,0.2,0,0.4-0.1,0.6c-0.1,0.2-0.1,0.4-0.2,0.7
		l-0.3,0.8c-0.2,0.5-0.4,1.1-0.7,1.6c-0.2,0.6-0.5,1.1-0.8,1.7c-1.2,2.2-2.6,4.5-4,6.7c-2.9,4.5-5.9,8.7-8.9,12.9
		c-3,4.2-6,8.1-8.8,11.9l-8,10.6c-5,6.6-9.1,12.1-12,16c-2.9,3.9-4.5,6.1-4.5,6.1S997.8,511.7,1001.3,508.4L1001.3,508.4z"/>
	<path id="Layer_7_" class="st0" d="M1107.5,507.5c-2.9-3.9-7-9.4-12-16l-8-10.6c-2.9-3.8-5.8-7.8-8.8-11.9c-3-4.2-6-8.5-8.9-12.9
		c-1.4-2.2-2.8-4.5-4-6.7c-0.3-0.6-0.6-1.1-0.8-1.7c-0.2-0.5-0.5-1-0.7-1.6l-0.3-0.8c-0.1-0.2-0.1-0.5-0.2-0.7
		c-0.1-0.4-0.2-0.7-0.2-1.1c0,0.7,0,0.1,0,0.3v-0.1v-0.3l0.1-0.5c0-0.2,0.1-0.4,0.2-0.6c0.1-0.2,0.1-0.3,0.2-0.5l0.3-0.8
		c0.2-0.5,0.4-1.1,0.7-1.6c0.2-0.6,0.5-1.1,0.8-1.7c1.2-2.2,2.6-4.5,4-6.7c2.9-4.5,5.9-8.7,8.9-12.9c3-4.2,6-8.1,8.8-11.9l8-10.6
		c5-6.6,9.1-12.1,12-16c2.9-3.9,4.5-6.1,4.5-6.1s-2.1,1.8-5.6,5.1c-1.8,1.6-3.9,3.6-6.3,6c-2.4,2.4-5,5.1-7.9,8.1s-5.9,6.3-9.1,9.8
		c-3.2,3.6-6.5,7.3-9.8,11.4c-3.3,4.1-6.6,8.3-9.7,12.9c-1.6,2.3-3.1,4.7-4.5,7.2c-0.3,0.7-0.7,1.3-1,2c-0.3,0.7-0.6,1.3-0.9,2.1
		l-0.4,1.1c-0.1,0.4-0.3,1-0.4,1.5s-0.2,0.9-0.3,1.4l-0.1,0.5v0.3v0.2v0.5c0.1,1,0.2,2,0.5,3c0.1,0.5,0.3,0.9,0.4,1.3l0.4,1.1
		c0.2,0.8,0.6,1.4,0.9,2.1c0.3,0.7,0.6,1.4,1,2c1.4,2.5,2.9,4.9,4.5,7.2c3.1,4.6,6.4,8.8,9.7,12.9c3.3,4.1,6.6,7.8,9.8,11.4
		c3.2,3.5,6.2,6.8,9.1,9.8c5.7,6,10.7,10.8,14.2,14.1c3.5,3.3,5.6,5.1,5.6,5.1S1110.5,511.3,1107.5,507.5z"/>
	<path id="Layer_8_" d="M1131.6,372.7c-2,0-4-0.4-5.9-1.1c-1.8-0.7-3.4-1.7-4.7-3.1c-1.3-1.3-2.4-2.9-3.1-4.6
		c-1.5-3.7-1.5-7.9,0-11.6c0.7-1.7,1.8-3.3,3.1-4.6c1.4-1.3,3-2.4,4.7-3.1c1.9-0.7,3.9-1.1,5.9-1.1s4.1,0.4,5.9,1.1
		c1.8,0.7,3.4,1.7,4.7,3.1c1.3,1.3,2.4,2.9,3.1,4.6c1.5,3.7,1.5,7.9,0,11.6c-1.5,3.5-4.3,6.3-7.9,7.7
		C1135.7,372.4,1133.7,372.7,1131.6,372.7z M1131.6,371.4c1.8,0,3.6-0.3,5.3-1c1.6-0.6,3.1-1.5,4.3-2.7c1.2-1.2,2.2-2.6,2.9-4.2
		c0.7-1.7,1.1-3.6,1-5.4c0-1.8-0.3-3.6-1-5.3c-0.6-1.6-1.6-3-2.8-4.2c-1.2-1.2-2.7-2.2-4.3-2.8c-1.7-0.7-3.5-1-5.4-1
		c-1.8,0-3.7,0.3-5.4,1c-3.2,1.3-5.7,3.8-7,7c-0.7,1.7-1,3.4-1,5.2c0,1.8,0.3,3.6,1,5.3c0.6,1.6,1.6,3,2.8,4.2
		c1.2,1.2,2.6,2.2,4.2,2.8C1128,371.1,1129.8,371.4,1131.6,371.4z M1133.2,349c0.8,0,1.5,0.2,2.2,0.5c0.7,0.3,1.2,0.8,1.7,1.3
		c0.5,0.6,0.8,1.2,1.1,1.9c0.3,0.7,0.4,1.4,0.4,2.1c0,1.3-0.4,2.5-1.1,3.5c-0.7,1-1.8,1.7-3,1.9l4.5,7.1h-2.3l-4.3-6.8h-4.8v6.8
		h-2.1V349H1133.2z M1133.2,358.6c1,0.1,1.9-0.3,2.5-1.1c0.6-0.8,0.9-1.8,0.8-2.8c0-1-0.3-2-1-2.8c-0.6-0.7-1.6-1.1-2.5-1.1h-5.5
		v7.7L1133.2,358.6z"/>
	<g>
		<path d="M1213.9,399.7h3.8v73.7c0,2.2,0.7,4,2.1,5.3c1.4,1.3,3.2,2,5.4,2c0.8,0,1.9-0.1,3-0.3c1.2-0.2,2.3-0.5,3.3-0.9l0.9,3.2
			c-1.1,0.4-2.6,0.7-4.3,1c-1.7,0.3-3.2,0.5-4.4,0.5c-2.9,0-5.3-0.9-7.1-2.7c-1.8-1.8-2.7-4.2-2.7-7.3V399.7z"/>
		<path d="M1242.3,409.4v-9.7h3.9v9.7H1242.3z M1242.3,483.7v-59.8h3.9v59.8H1242.3z"/>
		<path d="M1284.4,483.7l-25.5-59.8h4.1l23.3,55.3l23.5-55.3h4l-25.5,59.8H1284.4z"/>
		<path d="M1349.2,484.8c-4.1,0-7.9-0.8-11.4-2.5c-3.5-1.6-6.6-3.9-9.3-6.8c-2.6-2.9-4.7-6.2-6.2-10c-1.5-3.8-2.2-7.8-2.2-12.1
			c0-4.2,0.7-8.2,2.2-11.8c1.5-3.7,3.5-6.9,6.1-9.7c2.6-2.8,5.6-4.9,9.1-6.6c3.5-1.6,7.2-2.4,11.3-2.4c4.1,0,8,0.8,11.5,2.4
			c3.5,1.6,6.6,3.8,9.2,6.6c2.6,2.8,4.7,6.1,6.2,9.8c1.5,3.8,2.2,7.7,2.2,12c0,0.2,0,0.5,0,0.9s0,0.7-0.1,0.8h-53.6
			c0.3,3.7,1.2,7.1,2.6,10.3c1.4,3.2,3.3,5.9,5.5,8.2c2.3,2.3,4.9,4.1,7.8,5.5c3,1.3,6.1,2,9.4,2c2.1,0,4.3-0.3,6.4-0.9
			c2.1-0.6,4.1-1.4,5.9-2.5c1.8-1.1,3.5-2.4,4.8-3.9s2.5-3.1,3.3-4.9l3.6,0.9c-0.8,2.1-2.1,4-3.7,5.8c-1.6,1.8-3.5,3.3-5.7,4.6
			c-2.2,1.3-4.5,2.3-7.1,3C1354.4,484.5,1351.8,484.8,1349.2,484.8z M1373.9,452.2c-0.2-3.8-1-7.2-2.4-10.4
			c-1.4-3.1-3.2-5.9-5.5-8.2c-2.3-2.3-4.8-4.1-7.8-5.3c-2.9-1.3-6.1-1.9-9.4-1.9c-3.4,0-6.5,0.7-9.4,2c-2.9,1.3-5.5,3.1-7.6,5.4
			c-2.2,2.3-3.9,5-5.3,8.2c-1.3,3.1-2.1,6.6-2.4,10.2H1373.9z"/>
		<path d="M1386.2,402l30.1,38.4l30.1-38.4h4.6l-32.5,41.4l31.6,40.3h-4.6l-29.2-37.3l-29.2,37.3h-4.8l31.6-40.3l-32.5-41.4H1386.2z
			"/>
	</g>
</g>
<g id="Layer_2">
	<g>
		<path d="M714.2,571.3c0-3.9,0.7-7.8,2.1-11.6c1.4-3.9,3.4-7.3,6-10.3c2.6-3,5.8-5.5,9.6-7.4c3.8-1.9,8.1-2.9,13-2.9
			c5.8,0,10.7,1.3,14.8,4c4.1,2.6,7.1,6,9.1,10.2l-3.8,2.2c-1.2-2.2-2.5-4.1-4.1-5.7c-1.5-1.5-3.2-2.7-5-3.7
			c-1.8-0.9-3.7-1.6-5.6-2.1c-1.9-0.4-3.9-0.6-5.7-0.6c-4.1,0-7.8,0.8-10.9,2.5c-3.2,1.7-5.8,3.8-8,6.5c-2.2,2.7-3.8,5.7-5,9.1
			c-1.1,3.4-1.7,6.8-1.7,10.2c0,3.8,0.7,7.5,2,10.9c1.3,3.5,3.2,6.5,5.5,9.2c2.3,2.6,5,4.8,8.2,6.3c3.2,1.6,6.6,2.4,10.2,2.4
			c1.9,0,3.9-0.2,6-0.7c2.1-0.5,4-1.2,5.9-2.3c1.9-1,3.6-2.4,5.3-4c1.6-1.6,3-3.5,4.1-5.7l4,1.9c-1.1,2.4-2.6,4.6-4.5,6.5
			c-1.9,1.9-4,3.5-6.3,4.7c-2.3,1.3-4.8,2.2-7.3,2.9c-2.6,0.6-5.1,1-7.6,1c-4.4,0-8.5-1-12.2-2.9c-3.7-1.9-6.9-4.5-9.5-7.6
			c-2.7-3.1-4.8-6.7-6.2-10.7C715,579.5,714.2,575.5,714.2,571.3z"/>
		<path d="M800.1,605.1c-3.3,0-6.4-0.7-9.2-2c-2.8-1.3-5.3-3.1-7.3-5.3c-2.1-2.2-3.7-4.9-4.8-7.8c-1.2-3-1.7-6.1-1.7-9.4
			c0-3.3,0.6-6.5,1.8-9.5c1.2-3,2.8-5.6,4.9-7.8c2.1-2.2,4.5-4,7.3-5.3c2.8-1.3,5.9-2,9.2-2s6.3,0.7,9.1,2c2.8,1.3,5.2,3.1,7.3,5.3
			c2.1,2.2,3.7,4.9,4.9,7.8c1.2,3,1.8,6.1,1.8,9.5c0,3.3-0.6,6.4-1.8,9.4c-1.2,3-2.8,5.6-4.9,7.8c-2.1,2.2-4.5,4-7.3,5.3
			C806.4,604.4,803.3,605.1,800.1,605.1z M781.5,580.7c0,2.8,0.5,5.4,1.5,7.9c1,2.5,2.3,4.6,4,6.4c1.7,1.8,3.6,3.3,5.9,4.3
			c2.2,1.1,4.6,1.6,7.2,1.6c2.6,0,5-0.5,7.2-1.6c2.2-1.1,4.2-2.5,5.9-4.4c1.7-1.9,3-4.1,4-6.5c1-2.5,1.5-5.1,1.5-8
			c0-2.8-0.5-5.4-1.5-7.9c-1-2.5-2.3-4.6-4-6.5c-1.7-1.9-3.7-3.3-5.9-4.4c-2.2-1.1-4.6-1.6-7.2-1.6c-2.6,0-5,0.5-7.2,1.6
			c-2.2,1.1-4.2,2.6-5.9,4.5c-1.7,1.9-3,4.1-4,6.6C782,575.3,781.5,577.9,781.5,580.7z"/>
		<path d="M903.8,604.1h-4.6v-26.4c0-6-0.9-10.4-2.8-13.3c-1.9-2.9-4.7-4.3-8.5-4.3c-1.9,0-3.8,0.4-5.6,1.1
			c-1.8,0.7-3.4,1.7-4.8,3.1c-1.5,1.3-2.7,2.9-3.8,4.6c-1.1,1.8-1.9,3.8-2.5,6v29.3h-4.6v-26.4c0-6.1-0.9-10.5-2.7-13.4
			c-1.8-2.8-4.6-4.2-8.5-4.2c-1.9,0-3.8,0.3-5.5,1c-1.7,0.7-3.3,1.7-4.8,3c-1.5,1.3-2.7,2.9-3.9,4.6c-1.1,1.8-2,3.8-2.6,6v29.3h-4.6
			v-47.4h4.3v11.3c1.9-3.8,4.5-6.8,7.7-8.9c3.2-2.1,6.7-3.2,10.5-3.2c4,0,7.3,1.2,9.8,3.6c2.5,2.4,4,5.5,4.5,9.3
			c4.5-8.6,10.7-12.9,18.6-12.9c5.2,0,8.9,1.8,11.1,5.5c2.2,3.7,3.3,8.8,3.3,15.4V604.1z"/>
		<path d="M987.2,604.1h-4.6v-26.4c0-6-0.9-10.4-2.8-13.3c-1.9-2.9-4.7-4.3-8.5-4.3c-1.9,0-3.8,0.4-5.6,1.1
			c-1.8,0.7-3.4,1.7-4.8,3.1c-1.5,1.3-2.7,2.9-3.8,4.6c-1.1,1.8-1.9,3.8-2.5,6v29.3h-4.6v-26.4c0-6.1-0.9-10.5-2.7-13.4
			c-1.8-2.8-4.6-4.2-8.5-4.2c-1.9,0-3.8,0.3-5.5,1c-1.7,0.7-3.3,1.7-4.8,3c-1.5,1.3-2.7,2.9-3.9,4.6c-1.1,1.8-2,3.8-2.6,6v29.3h-4.6
			v-47.4h4.3v11.3c1.9-3.8,4.5-6.8,7.7-8.9c3.2-2.1,6.7-3.2,10.5-3.2c4,0,7.3,1.2,9.8,3.6c2.5,2.4,4,5.5,4.5,9.3
			c4.5-8.6,10.7-12.9,18.6-12.9c5.2,0,8.9,1.8,11.1,5.5c2.2,3.7,3.3,8.8,3.3,15.4V604.1z"/>
		<path d="M1000.9,546v-8.4h4.6v8.4H1000.9z M1000.9,604.1v-47.4h4.6v47.4H1000.9z"/>
		<path d="M1034.8,605.1c-3.6,0-7.1-0.6-10.5-1.8c-3.3-1.2-6.3-3-8.7-5.5l2.3-3.1c2.6,2.3,5.2,4,7.9,5.1c2.7,1.1,5.7,1.6,9,1.6
			c4.1,0,7.5-0.9,10-2.6c2.5-1.7,3.8-4.1,3.8-7.2c0-1.5-0.3-2.7-1-3.7c-0.6-1-1.6-1.9-2.9-2.6c-1.3-0.7-2.9-1.3-4.7-1.9
			c-1.9-0.5-4.1-1.1-6.6-1.7c-2.7-0.6-5-1.2-7-1.8c-2-0.6-3.6-1.3-4.9-2.2c-1.3-0.8-2.2-1.9-2.9-3.1c-0.6-1.2-1-2.8-1-4.6
			c0-2.4,0.5-4.4,1.4-6.2c0.9-1.8,2.2-3.2,3.8-4.4c1.6-1.2,3.5-2,5.6-2.6c2.1-0.6,4.3-0.9,6.7-0.9c3.7,0,7,0.6,9.8,1.9
			c2.9,1.2,5.1,2.8,6.7,4.8l-2.6,2.5c-1.6-1.8-3.6-3.2-6.2-4.1c-2.5-0.9-5.2-1.4-8.1-1.4c-1.8,0-3.4,0.2-5,0.5
			c-1.5,0.4-2.9,0.9-4.1,1.7c-1.2,0.8-2.1,1.8-2.7,3.1c-0.7,1.2-1,2.7-1,4.4c0,1.4,0.2,2.5,0.7,3.4c0.5,0.9,1.2,1.6,2.2,2.2
			c1,0.6,2.3,1.1,3.9,1.6c1.6,0.5,3.5,1,5.7,1.5c3,0.7,5.6,1.4,7.9,2.1c2.3,0.7,4.2,1.5,5.8,2.5c1.5,1,2.7,2.1,3.6,3.5
			c0.8,1.3,1.2,3,1.2,5.1c0,4.3-1.7,7.6-5,10.2C1044.8,603.8,1040.3,605.1,1034.8,605.1z"/>
		<path d="M1078.6,605.1c-3.6,0-7.1-0.6-10.5-1.8c-3.3-1.2-6.3-3-8.7-5.5l2.3-3.1c2.6,2.3,5.2,4,7.9,5.1c2.7,1.1,5.7,1.6,9,1.6
			c4.1,0,7.5-0.9,10-2.6c2.5-1.7,3.8-4.1,3.8-7.2c0-1.5-0.3-2.7-1-3.7c-0.6-1-1.6-1.9-2.9-2.6c-1.3-0.7-2.9-1.3-4.7-1.9
			c-1.9-0.5-4.1-1.1-6.6-1.7c-2.7-0.6-5-1.2-7-1.8c-2-0.6-3.6-1.3-4.9-2.2c-1.3-0.8-2.2-1.9-2.9-3.1c-0.6-1.2-1-2.8-1-4.6
			c0-2.4,0.5-4.4,1.4-6.2c0.9-1.8,2.2-3.2,3.8-4.4c1.6-1.2,3.5-2,5.6-2.6c2.1-0.6,4.3-0.9,6.7-0.9c3.7,0,7,0.6,9.8,1.9
			c2.9,1.2,5.1,2.8,6.7,4.8l-2.6,2.5c-1.6-1.8-3.6-3.2-6.2-4.1c-2.5-0.9-5.2-1.4-8.1-1.4c-1.8,0-3.4,0.2-5,0.5
			c-1.5,0.4-2.9,0.9-4.1,1.7c-1.2,0.8-2.1,1.8-2.7,3.1c-0.7,1.2-1,2.7-1,4.4c0,1.4,0.2,2.5,0.7,3.4c0.5,0.9,1.2,1.6,2.2,2.2
			c1,0.6,2.3,1.1,3.9,1.6c1.6,0.5,3.5,1,5.7,1.5c3,0.7,5.6,1.4,7.9,2.1c2.3,0.7,4.2,1.5,5.8,2.5c1.5,1,2.7,2.1,3.6,3.5
			c0.8,1.3,1.2,3,1.2,5.1c0,4.3-1.7,7.6-5,10.2C1088.6,603.8,1084.2,605.1,1078.6,605.1z"/>
		<path d="M1107.4,546v-8.4h4.6v8.4H1107.4z M1107.4,604.1v-47.4h4.6v47.4H1107.4z"/>
		<path d="M1146.2,605.1c-3.3,0-6.4-0.7-9.2-2c-2.8-1.3-5.3-3.1-7.3-5.3c-2.1-2.2-3.7-4.9-4.8-7.8c-1.2-3-1.7-6.1-1.7-9.4
			c0-3.3,0.6-6.5,1.8-9.5c1.2-3,2.8-5.6,4.9-7.8c2.1-2.2,4.5-4,7.3-5.3c2.8-1.3,5.9-2,9.2-2c3.3,0,6.3,0.7,9.1,2
			c2.8,1.3,5.2,3.1,7.3,5.3c2.1,2.2,3.7,4.9,4.9,7.8c1.2,3,1.8,6.1,1.8,9.5c0,3.3-0.6,6.4-1.8,9.4c-1.2,3-2.8,5.6-4.9,7.8
			c-2.1,2.2-4.5,4-7.3,5.3C1152.5,604.4,1149.5,605.1,1146.2,605.1z M1127.6,580.7c0,2.8,0.5,5.4,1.5,7.9c1,2.5,2.3,4.6,4,6.4
			c1.7,1.8,3.6,3.3,5.9,4.3c2.2,1.1,4.6,1.6,7.2,1.6s5-0.5,7.2-1.6c2.2-1.1,4.2-2.5,5.9-4.4c1.7-1.9,3-4.1,4-6.5
			c1-2.5,1.5-5.1,1.5-8c0-2.8-0.5-5.4-1.5-7.9c-1-2.5-2.3-4.6-4-6.5c-1.7-1.9-3.7-3.3-5.9-4.4c-2.2-1.1-4.6-1.6-7.2-1.6
			c-2.6,0-5,0.5-7.2,1.6c-2.2,1.1-4.2,2.6-5.9,4.5c-1.7,1.9-3,4.1-4,6.6C1128.1,575.3,1127.6,577.9,1127.6,580.7z"/>
		<path d="M1219,604.1h-4.6v-26.4c0-6.1-0.9-10.6-2.6-13.4c-1.7-2.8-4.5-4.2-8.2-4.2c-2,0-4,0.4-6,1.1c-2,0.7-3.8,1.8-5.5,3.1
			c-1.7,1.3-3.2,2.9-4.5,4.7c-1.3,1.8-2.2,3.7-2.8,5.8v29.3h-4.6v-47.4h4.3v11.3c1-1.8,2.2-3.5,3.6-5c1.4-1.5,3-2.8,4.8-3.8
			c1.8-1.1,3.7-1.9,5.7-2.5c2-0.6,4.1-0.9,6.2-0.9c5.2,0,8.8,1.8,10.9,5.4c2.1,3.6,3.2,8.8,3.2,15.5V604.1z"/>
		<path d="M1232.7,546v-8.4h4.6v8.4H1232.7z M1232.7,604.1v-47.4h4.6v47.4H1232.7z"/>
		<path d="M1290.3,604.1h-4.6v-26.4c0-6.1-0.9-10.6-2.6-13.4c-1.7-2.8-4.5-4.2-8.2-4.2c-2,0-4,0.4-6,1.1c-2,0.7-3.8,1.8-5.5,3.1
			c-1.7,1.3-3.2,2.9-4.5,4.7c-1.3,1.8-2.2,3.7-2.8,5.8v29.3h-4.6v-47.4h4.3v11.3c1-1.8,2.2-3.5,3.6-5c1.4-1.5,3-2.8,4.8-3.8
			c1.8-1.1,3.7-1.9,5.7-2.5c2-0.6,4.1-0.9,6.2-0.9c5.2,0,8.8,1.8,10.9,5.4c2.1,3.6,3.2,8.8,3.2,15.5V604.1z"/>
		<path d="M1323.2,604.9c-3.3,0-6.3-0.7-9-2.1c-2.7-1.4-5.1-3.2-7.1-5.5c-2-2.3-3.5-4.9-4.6-7.8c-1.1-2.9-1.7-5.9-1.7-9
			c0-3.2,0.5-6.3,1.6-9.3c1.1-3,2.6-5.6,4.5-7.9c1.9-2.3,4.3-4.1,7-5.4c2.7-1.3,5.7-2,9-2c4.1,0,7.7,1.1,10.8,3.2
			c3.1,2.2,5.7,4.8,7.8,7.9v-10.3h4.2v48.3c0,3.2-0.6,6-1.8,8.5c-1.2,2.4-2.8,4.4-4.9,6.1c-2,1.6-4.4,2.8-7.1,3.6
			c-2.7,0.8-5.5,1.2-8.5,1.2c-2.7,0-5.2-0.3-7.4-0.8c-2.2-0.5-4.1-1.2-5.8-2.2c-1.7-0.9-3.2-2.1-4.5-3.5c-1.3-1.4-2.4-2.9-3.4-4.5
			l3.1-2.1c1.9,3.2,4.4,5.6,7.7,7.1c3.2,1.5,6.7,2.2,10.3,2.2c2.4,0,4.7-0.3,6.9-1c2.2-0.7,4-1.7,5.7-3c1.6-1.3,2.9-2.9,3.8-4.9
			c0.9-1.9,1.4-4.2,1.4-6.8v-10.4c-1.9,3.1-4.5,5.6-7.7,7.4C1330.1,603.9,1326.8,604.9,1323.2,604.9z M1324.3,600.9
			c2,0,4-0.4,5.9-1.1c1.9-0.8,3.6-1.7,5.2-3c1.5-1.2,2.8-2.6,3.8-4.1c1-1.5,1.6-3,1.9-4.6v-15.6c-0.7-1.8-1.7-3.5-2.9-5.1
			c-1.2-1.5-2.6-2.9-4.1-4c-1.5-1.1-3.2-2-5-2.6c-1.8-0.6-3.6-1-5.4-1c-2.9,0-5.4,0.6-7.7,1.8c-2.2,1.2-4.1,2.8-5.7,4.7
			c-1.5,1.9-2.7,4.1-3.6,6.6c-0.8,2.5-1.2,4.9-1.2,7.4c0,2.7,0.5,5.3,1.5,7.7c1,2.4,2.3,4.6,4,6.5c1.7,1.9,3.7,3.4,6,4.5
			C1319.3,600.4,1321.7,600.9,1324.3,600.9z"/>
	</g>
</g>
</svg>
