<svg version="1.2" xmlns="http://www.w3.org/2000/svg" viewBox="0 0 950 350" width="950" height="350"><style>.a{fill:#92e503}</style><path  d="m90.3 175.9c-6.3 0-12.4-1.7-17.7-5-5.3-3.1-9.7-7.5-13-12.7v16.2h-4.9v-111.2h5.2v50c3.6-5.5 8.3-10.2 13.6-13.9 5.3-3.6 11.6-5.4 18.1-5.3 5.4-0.1 10.7 1.2 15.4 3.7 4.4 2.3 8.3 5.6 11.4 9.5 3.1 4 5.6 8.4 7.2 13.2 1.7 4.8 2.5 9.8 2.5 14.9 0 5.3-1 10.5-2.9 15.4-1.9 4.8-4.6 9.2-8.1 13-3.4 3.7-7.5 6.8-12.1 9-4.6 2.1-9.6 3.3-14.7 3.2zm-0.8-4.8c4.7 0 9.3-1.1 13.5-3.2 4-2 7.6-4.8 10.6-8.2 3-3.4 5.3-7.3 6.9-11.5 1.7-4.2 2.5-8.7 2.5-13.2 0-4.6-0.8-9.2-2.4-13.6-1.5-4.2-3.7-8.1-6.6-11.6-2.8-3.4-6.2-6.1-10.1-8.1-4.1-2.1-8.6-3.1-13.1-3.1-3.4 0-6.8 0.6-10.1 1.8-3.1 1.2-6 2.8-8.6 4.9-2.6 2.1-5 4.4-7 7-2.1 2.6-3.8 5.4-5.3 8.4v27.6c0.3 3.2 1.5 6.2 3.4 8.7 2 2.8 4.5 5.2 7.3 7.2 2.9 2.1 6 3.7 9.4 4.9 3.1 1.3 6.4 1.9 9.6 2z"/><path  d="m166.5 175.9c-3.5 0-7-0.6-10.2-1.9-3-1.2-5.8-3-8.2-5.2-2.3-2.2-4.2-4.8-5.5-7.7-1.3-3-2-6.3-2-9.6 0-3.2 0.8-6.4 2.4-9.2 1.7-2.9 4-5.3 6.8-7.2 3.2-2.2 6.7-3.8 10.4-4.7 4.3-1.2 8.8-1.7 13.2-1.7 4.5 0 9 0.4 13.5 1.1 4.2 0.6 8.3 1.7 12.3 3.2v-8.5c0-7.9-2.3-14.3-6.8-19-4.5-4.7-10.6-7.1-18.2-7.1-4.2 0.1-8.4 0.9-12.4 2.5-4.7 1.8-9.1 4.3-13.1 7.2l-2.4-3.8c10.2-6.9 19.6-10.4 28.2-10.4 9.2 0 16.5 2.7 21.9 8.2 5.3 5.5 8 13 8 22.6v41.5q0 3.3 2.7 3.3v4.9c-0.3 0.1-0.6 0.1-0.8 0.2h-0.7c-1.7 0-3.2-0.7-4.3-1.9-1.2-1.3-1.8-2.9-1.8-4.6v-7c-3.7 4.8-8.6 8.6-14.2 11-5.9 2.5-12.3 3.9-18.8 3.8zm12-5.9c3.6-0.9 7.1-2.3 10.3-4.2 2.8-1.6 5.4-3.7 7.5-6.2 1.8-2.1 2.9-4.7 2.9-7.5v-15c-8.1-3.1-16.7-4.6-25.3-4.6-3.9 0-7.7 0.4-11.4 1.4-3.2 0.8-6.2 2.1-8.9 3.8-2.3 1.5-4.3 3.5-5.8 5.8-1.4 2.3-2.1 5-2.1 7.7 0 2.7 0.5 5.4 1.7 7.9 1.1 2.4 2.6 4.6 4.6 6.4 2 1.9 4.3 3.3 6.8 4.3 2.5 1.2 5.4 1.7 8.3 1.7 3.8 0 7.7-0.5 11.4-1.5z"/><path  d="m258.3 166.4c-0.4 0.3-0.8 0.6-1.2 0.8-0.8 0.5-1.8 0.9-2.7 1.3q-2 0.7-3.9 1.2c-1.5 0.3-3 0.5-4.6 0.5-2.5 0-5-0.8-7-2.3-2.1-1.6-3.3-4.1-3.3-6.7v-61.5h18.7v-4.6h-18.7v-27.3h-5.2v27.4h-11.3v4.5h11.3v62.3c-0.2 3.8 1.4 7.4 4.3 9.7 2.9 2.3 6.6 3.5 10.3 3.4 2 0 4-0.2 5.9-0.6 1.6-0.3 3.2-0.8 4.7-1.4q1.6-0.6 3.3-1.5l1.5-0.8z"/><path  d="m305.2 166.4c-0.4 0.3-0.8 0.6-1.2 0.8-0.8 0.5-1.8 0.9-2.7 1.3q-2 0.7-3.9 1.2c-1.5 0.3-3 0.5-4.6 0.5-2.5 0-5-0.8-7-2.3-2.1-1.6-3.3-4.1-3.3-6.7v-61.5h18.7v-4.6h-18.7v-27.3h-5.2v27.4h-11.3v4.5h11.2v62.3c-0.2 3.8 1.4 7.4 4.3 9.7 2.9 2.3 6.6 3.5 10.3 3.4 2 0 4-0.2 5.9-0.6 1.6-0.3 3.2-0.8 4.7-1.4q1.7-0.6 3.3-1.5l1.5-0.8z"/><path  d="m352.1 175.9c-5.2 0-10.4-1.1-15.1-3.3-4.6-2.2-8.8-5.2-12.3-9-3.5-3.9-6.3-8.3-8.2-13.2-2-5.1-3-10.6-3-16.1 0-5.4 0.9-10.7 2.9-15.7 1.8-4.8 4.6-9.1 8.1-12.8 3.4-3.6 7.5-6.6 12-8.7 4.7-2.2 9.8-3.3 14.9-3.2 5.2 0 10.4 1 15.2 3.2 4.6 2.1 8.8 5.1 12.2 8.8 3.5 3.8 6.3 8.2 8.2 13 2 5 3 10.4 3 15.9v1.1c0.1 0.4 0 0.8-0.2 1.1h-71.1c0.4 4.7 1.5 9.3 3.4 13.6 1.8 4 4.2 7.7 7.3 10.9 3 3 6.5 5.5 10.4 7.2 3.9 1.8 8.2 2.7 12.5 2.7 2.9 0 5.7-0.4 8.5-1.1 2.8-0.8 5.4-1.9 7.9-3.3 2.4-1.4 4.5-3.1 6.4-5.1 1.8-1.9 3.3-4.1 4.4-6.5l4.7 1.2c-1.2 2.8-2.8 5.4-4.9 7.7-2.2 2.4-4.7 4.5-7.5 6.1-3 1.7-6.1 3-9.4 4-3.4 1.1-6.9 1.6-10.3 1.5zm32.7-43.3c-0.2-4.7-1.3-9.4-3.2-13.7-1.7-4-4.2-7.7-7.2-10.8-2.9-3-6.4-5.4-10.3-7.1-4-1.7-8.2-2.5-12.5-2.5-4.3 0-8.5 0.9-12.5 2.6-3.8 1.7-7.3 4.1-10.1 7.2-3 3.2-5.3 6.8-7 10.8-1.8 4.3-2.9 8.9-3.2 13.6h66z"/><path  d="m442.8 95.1h-2.1c-0.8 0-1.8 0.1-2.8 0.2-5.3 0.7-10.4 2.9-14.6 6.3-4.7 3.6-8.4 8.3-11 13.7v-20.1h-5v79.2h5.2v-49.9c1.8-6.9 5.8-13.1 11.3-17.6 5.5-4.3 12.2-6.7 19.1-6.9z"/><path class="a" d="m448.3 199.4c3.5-3.3 8.5-8.1 14.2-14.1 2.9-3 5.9-6.3 9.1-9.8 3.2-3.6 6.5-7.3 9.8-11.4 3.3-4.1 6.6-8.3 9.7-12.9q2.4-3.5 4.5-7.2c0.3-0.7 0.7-1.3 1-2 0.3-0.7 0.6-1.3 0.9-2.1l0.4-1.1c0.2-0.4 0.3-0.9 0.4-1.3 0.1-0.5 0.2-0.9 0.3-1.4l0.1-0.8v-0.4-0.2-0.1c0-0.2 0 0.3 0-0.5-0.1-0.8-0.2-1.6-0.4-2.4-0.1-0.5-0.2-1.1-0.4-1.5l-0.4-1.1c-0.2-0.8-0.6-1.4-0.9-2.1-0.3-0.7-0.6-1.4-1-2q-2.1-3.8-4.5-7.2c-3.1-4.6-6.4-8.9-9.7-12.9-3.3-4.1-6.6-7.8-9.8-11.4-3.2-3.5-6.3-6.7-9.1-9.8-2.8-3.1-5.5-5.7-7.9-8.1q-3.6-3.5-6.3-6c-3.5-3.3-5.6-5.1-5.6-5.1 0 0 1.6 2.3 4.5 6.1 2.9 3.9 7 9.4 12 16l8 10.6c2.9 3.8 5.8 7.7 8.8 11.9 3 4.2 6 8.5 8.9 12.9 1.4 2.2 2.8 4.5 4 6.7 0.3 0.6 0.6 1.1 0.8 1.7 0.2 0.5 0.5 1 0.7 1.6l0.3 0.8c0.1 0.2 0.1 0.3 0.2 0.5 0.2 0.6 0.3 1.1 0.3 1.7 0-0.8 0-0.2 0-0.4v0.1 0.1 0.2c0 0.2 0 0.4-0.1 0.6-0.1 0.2-0.1 0.4-0.2 0.7l-0.3 0.8c-0.2 0.5-0.4 1.1-0.7 1.6-0.2 0.6-0.5 1.1-0.8 1.7-1.2 2.2-2.6 4.5-4 6.7-2.9 4.5-5.9 8.7-8.9 12.9-3 4.2-6 8.1-8.8 11.9l-8 10.6c-5 6.6-9.1 12.1-12 16-2.9 3.9-4.5 6.1-4.5 6.1 0 0 1.9-1.9 5.4-5.2z"/><path class="a" d="m554.5 198.5c-2.9-3.9-7-9.4-12-16l-8-10.6c-2.9-3.8-5.8-7.8-8.8-11.9-3-4.2-6-8.5-8.9-12.9-1.4-2.2-2.8-4.5-4-6.7-0.3-0.6-0.6-1.1-0.8-1.7-0.2-0.5-0.5-1-0.7-1.6l-0.3-0.8c-0.1-0.2-0.1-0.5-0.2-0.7-0.1-0.4-0.2-0.7-0.2-1.1 0 0.7 0 0.1 0 0.3v-0.1-0.3l0.1-0.5c0-0.2 0.1-0.4 0.2-0.6 0.1-0.2 0.1-0.3 0.2-0.5l0.3-0.8c0.2-0.5 0.4-1.1 0.7-1.6 0.2-0.6 0.5-1.1 0.8-1.7 1.2-2.2 2.6-4.5 4-6.7 2.9-4.5 5.9-8.7 8.9-12.9 3-4.2 6-8.1 8.8-11.9l8-10.6c5-6.6 9.1-12.1 12-16 2.9-3.9 4.5-6.1 4.5-6.1 0 0-2.1 1.8-5.6 5.1q-2.7 2.4-6.3 6c-2.4 2.4-5 5.1-7.9 8.1-2.9 3-5.9 6.3-9.1 9.8-3.2 3.6-6.5 7.3-9.8 11.4-3.3 4.1-6.6 8.3-9.7 12.9q-2.4 3.4-4.5 7.2c-0.3 0.7-0.7 1.3-1 2-0.3 0.7-0.6 1.3-0.9 2.1l-0.4 1.1c-0.1 0.4-0.3 1-0.4 1.5-0.1 0.5-0.2 0.9-0.3 1.4l-0.1 0.5v0.3 0.2 0.5c0.1 1 0.2 2 0.5 3 0.1 0.5 0.3 0.9 0.4 1.3l0.4 1.1c0.2 0.8 0.6 1.4 0.9 2.1 0.3 0.7 0.6 1.4 1 2q2.1 3.8 4.5 7.2c3.1 4.6 6.4 8.8 9.7 12.9 3.3 4.1 6.6 7.8 9.8 11.4 3.2 3.5 6.2 6.8 9.1 9.8 5.7 6 10.7 10.8 14.2 14.1 3.5 3.3 5.6 5.1 5.6 5.1 0 0-1.7-2.3-4.7-6.1z"/><path  d="m578.6 63.7c-2 0-4-0.4-5.9-1.1-1.8-0.7-3.4-1.7-4.7-3.1-1.3-1.3-2.4-2.9-3.1-4.6-1.5-3.7-1.5-7.9 0-11.6 0.7-1.7 1.8-3.3 3.1-4.6 1.4-1.3 3-2.4 4.7-3.1 1.9-0.7 3.9-1.1 5.9-1.1 2 0 4.1 0.4 5.9 1.1 1.8 0.7 3.4 1.7 4.7 3.1 1.3 1.3 2.4 2.9 3.1 4.6 1.5 3.7 1.5 7.9 0 11.6-1.5 3.5-4.3 6.3-7.9 7.7-1.7 0.8-3.7 1.1-5.8 1.1zm0-1.3c1.8 0 3.6-0.3 5.3-1 1.6-0.6 3.1-1.5 4.3-2.7 1.2-1.2 2.2-2.6 2.9-4.2 0.7-1.7 1.1-3.6 1-5.4 0-1.8-0.3-3.6-1-5.3-0.6-1.6-1.6-3-2.8-4.2-1.2-1.2-2.7-2.2-4.3-2.8-1.7-0.7-3.5-1-5.4-1-1.8 0-3.7 0.3-5.4 1-3.2 1.3-5.7 3.8-7 7-0.7 1.7-1 3.4-1 5.2 0 1.8 0.3 3.6 1 5.3 0.6 1.6 1.6 3 2.8 4.2 1.2 1.2 2.6 2.2 4.2 2.8 1.8 0.8 3.6 1.1 5.4 1.1zm1.6-22.4c0.8 0 1.5 0.2 2.2 0.5 0.7 0.3 1.2 0.8 1.7 1.3 0.5 0.6 0.8 1.2 1.1 1.9 0.3 0.7 0.4 1.4 0.4 2.1 0 1.3-0.4 2.5-1.1 3.5-0.7 1-1.8 1.7-3 1.9l4.5 7.1h-2.3l-4.3-6.8h-4.8v6.8h-2.1v-18.3zm0 9.6c1 0.1 1.9-0.3 2.5-1.1 0.6-0.8 0.9-1.8 0.8-2.8 0-1-0.3-2-1-2.8-0.6-0.7-1.6-1.1-2.5-1.1h-5.5v7.7z"/><path  d="m161.2 262.3c0-3.9 0.7-7.8 2.1-11.6 1.4-3.9 3.4-7.3 6-10.3 2.6-3 5.8-5.5 9.6-7.4 3.8-1.9 8.1-2.9 13-2.9 5.8 0 10.7 1.3 14.8 4 4.1 2.6 7.1 6 9.1 10.2l-3.8 2.2c-1.2-2.2-2.5-4.1-4.1-5.7-1.5-1.5-3.2-2.7-5-3.7-1.8-0.9-3.7-1.6-5.6-2.1-1.9-0.4-3.9-0.6-5.7-0.6-4.1 0-7.8 0.8-10.9 2.5-3.2 1.7-5.8 3.8-8 6.5-2.2 2.7-3.8 5.7-5 9.1-1.1 3.4-1.7 6.8-1.7 10.2 0 3.8 0.7 7.5 2 10.9 1.3 3.5 3.2 6.5 5.5 9.2 2.3 2.6 5 4.8 8.2 6.3q4.8 2.4 10.2 2.4c1.9 0 3.9-0.2 6-0.7 2.1-0.5 4-1.2 5.9-2.3 1.9-1 3.6-2.4 5.3-4 1.6-1.6 3-3.5 4.1-5.7l4 1.9c-1.1 2.4-2.6 4.6-4.5 6.5-1.9 1.9-4 3.5-6.3 4.7-2.3 1.3-4.8 2.2-7.3 2.9-2.6 0.6-5.1 1-7.6 1-4.4 0-8.5-1-12.2-2.9-3.7-1.9-6.9-4.5-9.5-7.6-2.7-3.1-4.8-6.7-6.2-10.7-1.6-4.1-2.4-8.1-2.4-12.3z"/><path  d="m247.1 296.1c-3.3 0-6.4-0.7-9.2-2-2.8-1.3-5.3-3.1-7.3-5.3-2.1-2.2-3.7-4.9-4.8-7.8-1.2-3-1.7-6.1-1.7-9.4 0-3.3 0.6-6.5 1.8-9.5 1.2-3 2.8-5.6 4.9-7.8 2.1-2.2 4.5-4 7.3-5.3 2.8-1.3 5.9-2 9.2-2 3.3 0 6.3 0.7 9.1 2 2.8 1.3 5.2 3.1 7.3 5.3 2.1 2.2 3.7 4.9 4.9 7.8 1.2 3 1.8 6.1 1.8 9.5 0 3.3-0.6 6.4-1.8 9.4-1.2 3-2.8 5.6-4.9 7.8-2.1 2.2-4.5 4-7.3 5.3-3 1.3-6.1 2-9.3 2zm-18.6-24.4c0 2.8 0.5 5.4 1.5 7.9 1 2.5 2.3 4.6 4 6.4 1.7 1.8 3.6 3.3 5.9 4.3 2.2 1.1 4.6 1.6 7.2 1.6 2.6 0 5-0.5 7.2-1.6 2.2-1.1 4.2-2.5 5.9-4.4 1.7-1.9 3-4.1 4-6.5 1-2.5 1.5-5.1 1.5-8 0-2.8-0.5-5.4-1.5-7.9-1-2.5-2.3-4.6-4-6.5-1.7-1.9-3.7-3.3-5.9-4.4-2.2-1.1-4.6-1.6-7.2-1.6-2.6 0-5 0.5-7.2 1.6-2.2 1.1-4.2 2.6-5.9 4.5-1.7 1.9-3 4.1-4 6.6-1 2.6-1.5 5.2-1.5 8z"/><path  d="m350.8 295.1h-4.6v-26.4c0-6-0.9-10.4-2.8-13.3-1.9-2.9-4.7-4.3-8.5-4.3-1.9 0-3.8 0.4-5.6 1.1-1.8 0.7-3.4 1.7-4.8 3.1-1.5 1.3-2.7 2.9-3.8 4.6-1.1 1.8-1.9 3.8-2.5 6v29.3h-4.6v-26.4c0-6.1-0.9-10.5-2.7-13.4-1.8-2.8-4.6-4.2-8.5-4.2-1.9 0-3.8 0.3-5.5 1q-2.6 1.1-4.8 3c-1.5 1.3-2.7 2.9-3.9 4.6-1.1 1.8-2 3.8-2.6 6v29.3h-4.6v-47.4h4.3v11.3c1.9-3.8 4.5-6.8 7.7-8.9 3.2-2.1 6.7-3.2 10.5-3.2 4 0 7.3 1.2 9.8 3.6q3.7 3.6 4.5 9.3 6.7-12.9 18.6-12.9c5.2 0 8.9 1.8 11.1 5.5 2.2 3.7 3.3 8.8 3.3 15.4z"/><path  d="m434.2 295.1h-4.6v-26.4c0-6-0.9-10.4-2.8-13.3-1.9-2.9-4.7-4.3-8.5-4.3-1.9 0-3.8 0.4-5.6 1.1-1.8 0.7-3.4 1.7-4.8 3.1-1.5 1.3-2.7 2.9-3.8 4.6-1.1 1.8-1.9 3.8-2.5 6v29.3h-4.6v-26.4c0-6.1-0.9-10.5-2.7-13.4-1.8-2.8-4.6-4.2-8.5-4.2-1.9 0-3.8 0.3-5.5 1q-2.5 1.1-4.8 3c-1.5 1.3-2.7 2.9-3.9 4.6-1.1 1.8-2 3.8-2.6 6v29.3h-4.6v-47.4h4.3v11.3c1.9-3.8 4.5-6.8 7.7-8.9 3.2-2.1 6.7-3.2 10.5-3.2 4 0 7.3 1.2 9.8 3.6q3.8 3.6 4.5 9.3 6.8-12.9 18.6-12.9c5.2 0 8.9 1.8 11.1 5.5 2.2 3.7 3.3 8.8 3.3 15.4z"/><path  d="m434.2 295.1h-4.6v-26.4c0-6-0.9-10.4-2.8-13.3-1.9-2.9-4.7-4.3-8.5-4.3-1.9 0-3.8 0.4-5.6 1.1-1.8 0.7-3.4 1.7-4.8 3.1-1.5 1.3-2.7 2.9-3.8 4.6-1.1 1.8-1.9 3.8-2.5 6v29.3h-4.6v-26.4c0-6.1-0.9-10.5-2.7-13.4-1.8-2.8-4.6-4.2-8.5-4.2-1.9 0-3.8 0.3-5.5 1q-2.5 1.1-4.8 3c-1.5 1.3-2.7 2.9-3.9 4.6-1.1 1.8-2 3.8-2.6 6v29.3h-4.6v-47.4h4.3v11.3c1.9-3.8 4.5-6.8 7.7-8.9 3.2-2.1 6.7-3.2 10.5-3.2 4 0 7.3 1.2 9.8 3.6q3.8 3.6 4.5 9.3 6.8-12.9 18.6-12.9c5.2 0 8.9 1.8 11.1 5.5 2.2 3.7 3.3 8.8 3.3 15.4z"/><path  d="m447.9 237v-8.4h4.6v8.4zm0 58.1v-47.4h4.6v47.4z"/><path  d="m481.8 296.1q-5.4 0-10.5-1.8c-3.3-1.2-6.3-3-8.7-5.5l2.3-3.1c2.6 2.3 5.2 4 7.9 5.1 2.7 1.1 5.7 1.6 9 1.6 4.1 0 7.5-0.9 10-2.6 2.5-1.7 3.8-4.1 3.8-7.2 0-1.5-0.3-2.7-1-3.7-0.6-1-1.6-1.9-2.9-2.6-1.3-0.7-2.9-1.3-4.7-1.9-1.9-0.5-4.1-1.1-6.6-1.7-2.7-0.6-5-1.2-7-1.8-2-0.6-3.6-1.3-4.9-2.2-1.3-0.8-2.2-1.9-2.9-3.1-0.6-1.2-1-2.8-1-4.6 0-2.4 0.5-4.4 1.4-6.2 0.9-1.8 2.2-3.2 3.8-4.4 1.6-1.2 3.5-2 5.6-2.6 2.1-0.6 4.3-0.9 6.7-0.9 3.7 0 7 0.6 9.8 1.9 2.9 1.2 5.1 2.8 6.7 4.8l-2.6 2.5c-1.6-1.8-3.6-3.2-6.2-4.1-2.5-0.9-5.2-1.4-8.1-1.4-1.8 0-3.4 0.2-5 0.5-1.5 0.4-2.9 0.9-4.1 1.7-1.2 0.8-2.1 1.8-2.7 3.1-0.7 1.2-1 2.7-1 4.4 0 1.4 0.2 2.5 0.7 3.4 0.5 0.9 1.2 1.6 2.2 2.2 1 0.6 2.3 1.1 3.9 1.6q2.4 0.7 5.7 1.5c3 0.7 5.6 1.4 7.9 2.1 2.3 0.7 4.2 1.5 5.8 2.5 1.5 1 2.7 2.1 3.6 3.5q1.2 1.9 1.2 5.1c0 4.3-1.7 7.6-5 10.2-3.1 2.4-7.6 3.7-13.1 3.7z"/><path  d="m525.6 296.1q-5.4 0-10.5-1.8c-3.3-1.2-6.3-3-8.7-5.5l2.3-3.1c2.6 2.3 5.2 4 7.9 5.1 2.7 1.1 5.7 1.6 9 1.6 4.1 0 7.5-0.9 10-2.6 2.5-1.7 3.8-4.1 3.8-7.2 0-1.5-0.3-2.7-1-3.7-0.6-1-1.6-1.9-2.9-2.6-1.3-0.7-2.9-1.3-4.7-1.9-1.9-0.5-4.1-1.1-6.6-1.7-2.7-0.6-5-1.2-7-1.8-2-0.6-3.6-1.3-4.9-2.2-1.3-0.8-2.2-1.9-2.9-3.1-0.6-1.2-1-2.8-1-4.6 0-2.4 0.5-4.4 1.4-6.2 0.9-1.8 2.2-3.2 3.8-4.4 1.6-1.2 3.5-2 5.6-2.6 2.1-0.6 4.3-0.9 6.7-0.9 3.7 0 7 0.6 9.8 1.9 2.9 1.2 5.1 2.8 6.7 4.8l-2.6 2.5c-1.6-1.8-3.6-3.2-6.2-4.1-2.5-0.9-5.2-1.4-8.1-1.4-1.8 0-3.4 0.2-5 0.5-1.5 0.4-2.9 0.9-4.1 1.7-1.2 0.8-2.1 1.8-2.7 3.1-0.7 1.2-1 2.7-1 4.4 0 1.4 0.2 2.5 0.7 3.4 0.5 0.9 1.2 1.6 2.2 2.2 1 0.6 2.3 1.1 3.9 1.6q2.4 0.7 5.7 1.5c3 0.7 5.6 1.4 7.9 2.1 2.3 0.7 4.2 1.5 5.8 2.5 1.5 1 2.7 2.1 3.6 3.5q1.2 1.9 1.2 5.1c0 4.3-1.7 7.6-5 10.2-3.1 2.4-7.5 3.7-13.1 3.7z"/><path  d="m554.4 237v-8.4h4.6v8.4zm0 58.1v-47.4h4.6v47.4z"/><path  d="m593.2 296.1c-3.3 0-6.4-0.7-9.2-2-2.8-1.3-5.3-3.1-7.3-5.3-2.1-2.2-3.7-4.9-4.8-7.8-1.2-3-1.7-6.1-1.7-9.4 0-3.3 0.6-6.5 1.8-9.5 1.2-3 2.8-5.6 4.9-7.8 2.1-2.2 4.5-4 7.3-5.3 2.8-1.3 5.9-2 9.2-2 3.3 0 6.3 0.7 9.1 2 2.8 1.3 5.2 3.1 7.3 5.3 2.1 2.2 3.7 4.9 4.9 7.8 1.2 3 1.8 6.1 1.8 9.5 0 3.3-0.6 6.4-1.8 9.4-1.2 3-2.8 5.6-4.9 7.8-2.1 2.2-4.5 4-7.3 5.3-3 1.3-6 2-9.3 2zm-18.6-24.4c0 2.8 0.5 5.4 1.5 7.9 1 2.5 2.3 4.6 4 6.4 1.7 1.8 3.6 3.3 5.9 4.3 2.2 1.1 4.6 1.6 7.2 1.6 2.6 0 5-0.5 7.2-1.6 2.2-1.1 4.2-2.5 5.9-4.4 1.7-1.9 3-4.1 4-6.5 1-2.5 1.5-5.1 1.5-8 0-2.8-0.5-5.4-1.5-7.9-1-2.5-2.3-4.6-4-6.5-1.7-1.9-3.7-3.3-5.9-4.4-2.2-1.1-4.6-1.6-7.2-1.6-2.6 0-5 0.5-7.2 1.6-2.2 1.1-4.2 2.6-5.9 4.5-1.7 1.9-3 4.1-4 6.6-1 2.6-1.5 5.2-1.5 8z"/><path  d="m666 295.1h-4.6v-26.4c0-6.1-0.9-10.6-2.6-13.4-1.7-2.8-4.5-4.2-8.2-4.2-2 0-4 0.4-6 1.1-2 0.7-3.8 1.8-5.5 3.1-1.7 1.3-3.2 2.9-4.5 4.7-1.3 1.8-2.2 3.7-2.8 5.8v29.3h-4.6v-47.4h4.3v11.3c1-1.8 2.2-3.5 3.6-5 1.4-1.5 3-2.8 4.8-3.8 1.8-1.1 3.7-1.9 5.7-2.5 2-0.6 4.1-0.9 6.2-0.9 5.2 0 8.8 1.8 10.9 5.4 2.1 3.6 3.2 8.8 3.2 15.5v27.4z"/><path  d="m679.7 237v-8.4h4.6v8.4zm0 58.1v-47.4h4.6v47.4z"/><path  d="m737.3 295.1h-4.6v-26.4c0-6.1-0.9-10.6-2.6-13.4-1.7-2.8-4.5-4.2-8.2-4.2-2 0-4 0.4-6 1.1-2 0.7-3.8 1.8-5.5 3.1-1.7 1.3-3.2 2.9-4.5 4.7-1.3 1.8-2.2 3.7-2.8 5.8v29.3h-4.6v-47.4h4.3v11.3c1-1.8 2.2-3.5 3.6-5 1.4-1.5 3-2.8 4.8-3.8 1.8-1.1 3.7-1.9 5.7-2.5 2-0.6 4.1-0.9 6.2-0.9 5.2 0 8.8 1.8 10.9 5.4 2.1 3.6 3.2 8.8 3.2 15.5v27.4z"/><path  d="m770.2 295.9q-4.9 0-9-2.1c-2.7-1.4-5.1-3.2-7.1-5.5-2-2.3-3.5-4.9-4.6-7.8-1.1-2.9-1.7-5.9-1.7-9 0-3.2 0.5-6.3 1.6-9.3 1.1-3 2.6-5.6 4.5-7.9 1.9-2.3 4.3-4.1 7-5.4 2.7-1.3 5.7-2 9-2 4.1 0 7.7 1.1 10.8 3.2 3.1 2.2 5.7 4.8 7.8 7.9v-10.3h4.2v48.3c0 3.2-0.6 6-1.8 8.5-1.2 2.4-2.8 4.4-4.9 6.1-2 1.6-4.4 2.8-7.1 3.6-2.7 0.8-5.5 1.2-8.5 1.2-2.7 0-5.2-0.3-7.4-0.8-2.2-0.5-4.1-1.2-5.8-2.2-1.7-0.9-3.2-2.1-4.5-3.5-1.3-1.4-2.4-2.9-3.4-4.5l3.1-2.1c1.9 3.2 4.4 5.6 7.7 7.1 3.2 1.5 6.7 2.2 10.3 2.2 2.4 0 4.7-0.3 6.9-1 2.2-0.7 4-1.7 5.7-3 1.6-1.3 2.9-2.9 3.8-4.9 0.9-1.9 1.4-4.2 1.4-6.8v-10.4c-1.9 3.1-4.5 5.6-7.7 7.4-3.4 2-6.7 3-10.3 3zm1.1-4c2 0 4-0.4 5.9-1.1 1.9-0.8 3.6-1.7 5.2-3 1.5-1.2 2.8-2.6 3.8-4.1 1-1.5 1.6-3 1.9-4.6v-15.6c-0.7-1.8-1.7-3.5-2.9-5.1-1.2-1.5-2.6-2.9-4.1-4-1.5-1.1-3.2-2-5-2.6-1.8-0.6-3.6-1-5.4-1-2.9 0-5.4 0.6-7.7 1.8-2.2 1.2-4.1 2.8-5.7 4.7q-2.3 2.8-3.6 6.6c-0.8 2.5-1.2 4.9-1.2 7.4 0 2.7 0.5 5.3 1.5 7.7 1 2.4 2.3 4.6 4 6.5q2.6 2.8 6 4.5c2.3 1.4 4.7 1.9 7.3 1.9z"/><path  d="m643 171.4v-36.2h44.4v-3.6h-44.4v-34.9h49.7v-3.6h-53.7v81.9h55.3v-3.6zm156.1 3.6l-0.1-81.9h-3.3l-37.6 65.5-37.6-65.5h-3.3v81.9h3.9v-73.6l36 62.3h2.1l35.9-62.5 0.1 73.8zm86 0l-31.8-42.4 29.5-39.5h-4.5l-27.2 36.6-27.4-36.6h-4.7l29.5 39.5-31.7 42.4h4.6l29.6-39.4 29.4 39.4z"/></svg>